/* XPM */
static char *_721590246f24096ad1158868b427343[] = {
/* columns rows colors chars-per-pixel */
"64 64 228 2 ",
"   c #55463F",
".  c #3F4548",
"X  c #464646",
"o  c #4A4544",
"O  c #474846",
"+  c #4B4945",
"@  c #464549",
"#  c #4A4748",
"$  c #464A4A",
"%  c #4B4A4B",
"&  c #544945",
"*  c #5B4B45",
"=  c #534D4C",
"-  c #5B4D4A",
";  c #564545",
":  c #4D524E",
">  c #54514C",
",  c #5B524E",
"<  c #5B5147",
"1  c #4D4E51",
"2  c #534E51",
"3  c #5A4E51",
"4  c #555252",
"5  c #5B5351",
"6  c #5D5954",
"7  c #585A5B",
"8  c #4C5452",
"9  c #634D4B",
"0  c #664E47",
"q  c #63534C",
"w  c #6B544B",
"e  c #6D5A4C",
"r  c #685546",
"t  c #725B4D",
"y  c #74564C",
"u  c #645452",
"i  c #6C5552",
"p  c #645A53",
"a  c #6C5B53",
"s  c #645C5C",
"d  c #6B5C5A",
"f  c #67565A",
"g  c #735C53",
"h  c #7A5D53",
"j  c #745D59",
"k  c #775857",
"l  c #684F51",
"z  c #5C605C",
"x  c #79634D",
"c  c #64615C",
"v  c #6D635C",
"b  c #6C6357",
"n  c #746255",
"m  c #7C6355",
"M  c #7D6954",
"N  c #74635B",
"B  c #7C645A",
"V  c #7D6A5C",
"C  c #756A5F",
"Z  c #79715F",
"A  c #5B6664",
"S  c #686664",
"D  c #746463",
"F  c #746C63",
"G  c #7B6B63",
"H  c #7A6867",
"J  c #7B726B",
"K  c #777366",
"L  c #757B76",
"P  c #6B776F",
"I  c #6E5B62",
"U  c #895858",
"Y  c #8C5655",
"T  c #82624E",
"R  c #836555",
"E  c #846A55",
"W  c #82665A",
"Q  c #846B5C",
"!  c #8C6C5C",
"~  c #8A6957",
"^  c #916E5D",
"/  c #85715D",
"(  c #8B725C",
")  c #867356",
"_  c #92735C",
"`  c #9A795C",
"'  c #846D63",
"]  c #8B6E62",
"[  c #866967",
"{  c #986967",
"}  c #857264",
"|  c #8B7364",
" . c #8D7965",
".. c #83736B",
"X. c #8C746A",
"o. c #8D7A6A",
"O. c #84786A",
"+. c #937463",
"@. c #947A64",
"#. c #9A7B65",
"$. c #93756A",
"%. c #937B6B",
"&. c #9B7C6B",
"*. c #997667",
"=. c #837572",
"-. c #8D7B73",
";. c #897877",
":. c #937D73",
">. c #977C77",
",. c #9A6870",
"<. c #A07E67",
"1. c #A36D72",
"2. c #A47876",
"3. c #B2797E",
"4. c #A06C6F",
"5. c #6D877B",
"6. c #798579",
"7. c #94816D",
"8. c #9B826C",
"9. c #998467",
"0. c #958373",
"q. c #9C8473",
"w. c #9D8A74",
"e. c #95837C",
"r. c #9B837B",
"t. c #9D897A",
"y. c #918C78",
"u. c #9A9278",
"i. c #878B79",
"p. c #A3836B",
"a. c #A6886D",
"s. c #A38474",
"d. c #A38A73",
"f. c #AB8C73",
"g. c #A3857B",
"h. c #A48B7B",
"j. c #AA8B7A",
"k. c #AB927A",
"l. c #B1937B",
"z. c #B29278",
"x. c #B08D77",
"c. c #777D81",
"v. c #B67C82",
"b. c #8E7F83",
"n. c #788886",
"m. c #6D908A",
"M. c #7CA597",
"N. c #79B8AD",
"B. c #75BCB3",
"V. c #77B3A9",
"C. c #74C2BB",
"Z. c #6BC5B4",
"A. c #73C1C0",
"S. c #878987",
"D. c #9D8A84",
"F. c #9A8885",
"G. c #9A9886",
"H. c #979899",
"J. c #869795",
"K. c #A38C83",
"L. c #A28E89",
"P. c #A98986",
"I. c #B98687",
"U. c #AB938C",
"Y. c #A99488",
"T. c #B29482",
"R. c #B39887",
"E. c #AD9A93",
"W. c #A99694",
"Q. c #B29C94",
"!. c #B79C97",
"~. c #9AA896",
"^. c #96A38E",
"/. c #B4A29B",
"(. c #BBA49C",
"). c #B9A69A",
"_. c #AAA68E",
"`. c #94AFAB",
"'. c #BCA6A3",
"]. c #BDAAA4",
"[. c #B9AAA7",
"{. c #AFAFAC",
"}. c #A69EA2",
"|. c #C68B91",
" X c #C69698",
".X c #C88D90",
"XX c #C4A79E",
"oX c #C2ACA5",
"OX c #C3AEA9",
"+X c #C8A9A8",
"@X c #C4B3AB",
"#X c #CBB4AD",
"$X c #C6B5AA",
"%X c #C5B5B2",
"&X c #CBB6B3",
"*X c #C5BAB3",
"=X c #CABBB4",
"-X c #CBBDBA",
";X c #C7B8BA",
":X c #D3BDBA",
">X c #D5B9B6",
",X c #C9ADB1",
"<X c #D599A4",
"1X c #98C1B6",
"2X c #CDC2BB",
"3X c #CAC2B7",
"4X c #D2C3BD",
"5X c #D8C6BE",
"6X c #CDBDC0",
"7X c #B6CFCC",
"8X c #CEC3C2",
"9X c #D2C5C2",
"0X c #D4C9C5",
"qX c #DACAC5",
"wX c #D6CCC9",
"eX c #DACDCB",
"rX c #D9C6C5",
"tX c #DBD1CB",
"yX c #D6D1C8",
"uX c #DCCDD1",
"iX c #DCD2D1",
"pX c #DED4D9",
"aX c #C4D3D7",
"sX c #E4CAC9",
"dX c #E2D3CE",
"fX c #E2D3D3",
"gX c #E6D8D9",
"hX c #E8E0E0",
/* pixels */
"B.B.N.M.5.Z b N =.p + p Y.=X3X3X0X4X0X0X0X0X0X0X0XeXwX0XyXeXeXqXeXeXiXyX0XqX4X>X+XE.-.v * V Y.E p.( m n a n e ) _ T.^.B.C.C.Z.Z.",
"B.Z.N.m.L b e b =.c o K /.*X3X3X2X0X8X0X0X0X0X0X0XyX0XwXyXyXyXeXeXeXeXeXtXtX0X:XOX(.>.D , t k. .@.d.B W t x e M ^ j.~.N.C.C.C.Z.",
"N.C.V.5.F c b n O.v o J ).=X3X3X0X2X4X0X8X0X0X0XwXwXyX0XwX0XyXqXqXqXqXwX8X[.W.W.S.-.;.J , q 7.w.^ k.R Q t e e x T 8.G.`.C.C.C.C.",
"N.B.M.5.v q N n J v   O.].$X3X3X2X2X8X2X8X0X0X0XwXeXqXyXqX0X0X9X9X=X[.F.J d s 4 5 i ; f 5 - F h.( k.( / V e e w x _ y.~.1XC.A.C.",
"M.M.5.P e n N N G N * G ).$X3X3X8X4X8X0X8X0X0X0X0XwXwX0X9X9X4X4X].F...D f u u J F.F.J 3 - & d u.( q.j.E  .b t e e ( w.^.`.Z.Z.V.",
"n.5.5.b j B N V V t * / ).$X*X3X2X2X8X8X8X8X8X0X0X5X0X0X4X5X3X[.:...H v D ;.W.].'.(.W.;.u ; n o.0.@.T.T $.G N j r M 9.G.^.m.m.m.",
"n.5.K C n B b } N j * V _.$X*X=X=X2X8X3X3X3X8X2X8XwX8X8X4X4X#XL.....N b >.!.U.v.v.r.>.;.d * t V t./ T.W } O.N n r x 9.u.^.5.5.5.",
"6.L K F b B e G B a   C R.$X$X3X2X-X*X*X*X*X;X-X-X8X8X9X8X4X].>.' G O.e.:.W k I I W U B k * p N | / k.8.M %.V n t r 9.u.~.5.5.m.",
"i.6.F C b C t ' J q   C Q.oX3X*X}.L.F.S.Y./.[.;X*X6X6X8X2X-XOX:.' r.t.' 3 l I l I l l l u - p C M 7.7.l.x 0.} n a 0  .9._.i.5.m.",
"i.6.F ..M V n W ' i ; G E._.S.J s 3 c v V i.Y.@X@X&X:X8X8X-X@XL.U.Q.X.l f I I 2 2 3 3 3 > > 6 C e w.9.R.M o.o.V w 0 M 7.u.~.S.m.",
"^.K O.O.' V g W ' j ; H -.a * & ; - - , a t X.R.oX%X6XrX9X=XOX(./.K.i k I 7 n.}.c.7 1 2 4 + 5 F r %.s.T.) / 7.M y w m  .d._.~.`.",
"y.Z o.X.} V h Q ' N - p * l D H H D j k n W } Y.).$X:XuXqX-X@X(.U.[ a I c.c.`.aX7XJ.7 1 4 > , C w B h.k.#.R w.( j 0 x ) 9._.{.7X",
"} } o.| | Q B W [ H ; ; 3 F.W.v.2.[ [ [ >.P.s.K.R.OXrXfXsX9X%X].Y.$...F n.m.A.aX7X}.c.@ 1 2 9 B j t 8.j.d.x d. .x r x ) 9.k._.1X",
"o.Z o.o.X.} B R [ H ; ; =.P.>.[ k y l U U 2.P.K.U.'.6XfXeX4X=XoXQ.U.J L J.m.1XaX7XH.I 2 3 ; q V B y %.k.R.E 9.%.b r r ) ) k.u.6.",
" .Q  .w. .| V M ' [ ; l [ [ I 9 l D H 2.,.,.P.I.U.!.&XfXeX9X3X*X#XU.=.}.H.H.`.H.c.I 3 I l - i G R w Q g.T.^ +.w.M e r x ) u.u.i.",
"| V | t. .} Q B ..=.9 ; l l - - ; 7 7 I [ P.P.P.U.'.&XfXiXwX9X8X4XOX!.W.b.b.H H H =.H H I i g } V w h >.T.p.E d.V e r x ) ) u.^.",
"o.V  .t.7.} } V V -.u - - 3 1 = 8 P `.}.}.;.W.!.Q.[.;XfXfXwXwXyX0X0X6X,X!.W.W.!.!.E.L.F...h m ] R t t ] T.s.T g.%.t r M x M u.u.",
"| M | w.w.| | / V -.d * 2 2 1 1 P m.7XaXpX[.F./.%X%X;XsXfXuXwXyXyXwXwXwXrXrX:X&X=XOX).E.>.W m +.n t k R T.l.~ q.0.G * n E M u.9.",
"} M o.0.0.%.} X.Q o.N & = 1 1 4 A J.7XaX8X/.[.%X%X%X;XuXgXfXuXyXyXtXpXpXuXrX8X4X4X=X#X/.U.$.W | W e g h q.l.+.%.%.G q t ) x w.u.",
"} Q  .%.w.%.}  .} } C = 1 1 2 4 S `.{.H.b.D.OX=X%X;X;XwXgXgXuXeXtXtXuXpXuXuXwX8X4X3X=X].W.$.] | Q y m h &.T.` @.K.V q r x x 9.9.",
"V V o.0.h.0.|  .X.X..., 4 4 : = 7 S s I F.,X;X;X2X*X;XuXgXpXpXtXqXqXdXgXpXfXuX0X5X4X*X@XU.$.X.+./ t h W $.T. .( h.V t q x x / 9.",
"V V :.0.t.0.| o.|  .X.u 3 > > > 5 I F./.,X6X;X6X3X%X6XuXhXhXgXdXqX5XiXdXfXiXeXuXwX0X-X].U.$.$.{ ] h k W ' T.#._ K.n n n n x / 7.",
"V V :.0.0.0.%.o.o. .:.a u 6 p p =.W.[.%X;X;X8X8X*X%X4XgXgXhXhXpXdX5XqXdXdXiXiXuXqX9X=XOXU.$.*.^ Q h k Q W j.&. .k.C a e r V M 9.",
"n Z o.0.d.7.o.o.%.| o.n a d j [ D.'.;X6X8XwX0X8X*X@X4XdXpXiXhXdXdXqX=X0XeXuXwXuXeX9X=XOXP.$.&.] ] h W ' h s.q.+.h.} a t 0 n Q 9.",
"n } o.0.t.o.| $.%.} 7.V j H [ -.Q.%X-X8X0X0X8X8X*X@X&X=X3X8X8X*X=X5X&X/.wXrXuXeXeX9X:XoXg.&.*.~ ] h W Q m s.&.&.K.} t d q n / @.",
"n V o.0.t.| /  .0./ 7.V j [ >.K.'.*X4X9XyX0X8X2X*X/.U.E./.@X*X$X(.OXrX@X-X9XqXuXqX4X#X).g.2.{ ~ $.W [ X.B s.&.g.g.X.e d e t B | ",
"n Z o.e.t. ./ Q %.} O.o.B X.F.L.].=X2X4XyX0X0X8X%X/.D.Y.U.U.oX>.y U.!.#X:X9X0X0XrX:X#X!.g.s.^ ! $.W ] ] Q s.@.s.q...j n e e t +.",
"C C o.0.s.| W B o.o...o.m } e.U.].=X4X8X8X0X0X8X@X).t.t 0.Y././.' h !.4X5X:X9X0X0X:X#X!.s.&.^ ! $.W ! Q | s.$.d.t...d d , g x | ",
"v C O.o.7.| W B V o.Q o.V M >.D.E.].3X2X8X8X8X3X@X/.s.w } E./.>X,XR.oX4XqXrX0XwX0X:X+XT.j.$.] Q $.Q ! ! +.8.+.w.h...i N q e n | ",
"c b K 7. .| m h V Q B ' ] m $.>.Y.].*X3X2X0X8X3X*X].P.] U.XX(.:XsX:X:XwXqXeXwXwX9X:XoXP.s.{ ~ { +.] | W &.&.@.w.Y.} q G q e m ' ",
"q b O. .} Q R y m n B ' X.W [ $.K.Q.@X3X0X4X0X3X=X=XQ.U.,XqX&X0XgXsXeXeXiXeXuXrX8X#X(.T.&.] ~ $.] | | ~ s.| #.h.0. .q N p q t V ",
"c v O.O./ B B k j j g ' X.h W $.g.Y.].*X3X4X0X0X9X3X#X$X5XdXwXwXgXhXgXpXfXfXuXwX4XoX!.j.*.~ ! $.] $.+.! s.( 8.d. .$.e n n q d B ",
"c K J O.N m h g d N e j [ B B ] >.Y.).@X3X4X4X0X0X5X5X5XdXdXfXuXsXrXsXfXgXsXsXsX3X$XR.p.+.! ] $.] +.| %.s.! s.q.( %.x e N 0 d N ",
"c F O.o.n j e i t v q q J Q B ! *.g.!.oX#X2X2X8X8XqXqXrX>X5XrX:X>X,X,X<X>XsXsX5X>XXXl.#.^ ! $.^ { $.+.&.q.( k.&.Q 8.m e D a q N ",
"s K O.' j e d u p v u u N H N ' $.g.U.XX$X3X8X9XyXqXsX,X XXX|.|..X|.1.1.1.3.<X>XOX!.g.+.] ] +.] +.+.+.&.8./ h. ./ 8.B g B j w j ",
": F K G d u u p , d d u u D B B ] q.T.(.OX&X3X4XrXeX,XI.I.,.{ ,.{ Y Y Y { Y Y *.g.g.*.$.^ { +.] ` #.&.p.#. .d.Q / t.X.g Q B w g ",
"z 5 J F p q p u u , d u - D B j ' :.g.Q.'.OX&X4X4X>Xj.{ Y Y Y Y Y 1.I..Xv.v.{ ^ 2.&.&.+.] $.^ +.+.#.s.p.! 7.w.V | 7.+.B Q ] B y ",
"n.7 c F q q , , , 5 p 5 > d N t W $.r.U.!.XX#X>X#XP.U Y Y 4.3.v.|.<X<X.X.X.X.X.XT.&.&.! +.^ ! *.+.#.&.&.( 8.$.! +.%.$.Q B %.@.m ",
"J.J.z S 6 6 p 5 5 , 6 6 , 6 a t k X.:.F.Q.(.OX@XE.U U { v..X.X X|.v.v.I.I.I.x.x.2.&.&.! ^ ^ ~ *.#.p.&.` | d.} Q %.8.| | R +.d.! ",
"J.`.S.c 5 > 6 c 2 5 > s 4 3 p j j ' X.>.U./.'.!.>.k 1.v.v.v.v.v.1.1.*.4.2.2.s.2.&.*.*.~ ! ^ ^ #.` &.*.^ &.d.| / s.>.( ( E 9.d.( ",
"`.`.n.z , > > 6 3 > 5 7 4 = u e j V [ -.L.Q.E.W.!.!.v.2.1.,.U U Y Y k W $.$.+.+.@.*.^ ~ ^ ~ *.! #.9.#.~ 9.| / W %.q.~ +.( ` f.9.",
"A 1 $ 6 4 , 3 = > 2 5 5 4 - 5 , p n V } e.U.E.U.E.E.F.X.[ W ' X.{ | X.>.r.:.:.&.&.&.U ! ~ +.+.+.#._ ( Q q.Q  .Q +.s.| #._ 9.R. .",
"$ : : 4 = = = = 2 > 2 , , , , u u a B G X.F.U.L.D.F.F.:.;.-.>.D.E.!.oX,XoX(.Y.s.2.*.~ ^ ~ &.+.#._ ( E +.X.m | E | s.~ #.` a.R.9.",
"$ 8 : % 8 : = = > 2 2 2 4 4 3 5 , * N V [ ;.>.F.e.>.e.e.F.D.W.[.%X%X-X:X#X$XT.s.a.! *.T ! +.+.+.Q ( Q >.} m / ~ +.q.! 8._ 9.R.d.",
"= 1 1 = 1 : : & = 1 = 2 2 > - 3 5 = - D J ..-.e.F.D.K.L.W./.%X;X-X;X&XOXoX(.j.3.<.^ ^ W $.! | ( E ~ | &.W n | ~ ~ p.` <.` a.l.a.",
"1 = 1 1 1 1 1 1 2 1 1 % 2 4 > 3 , , & > D F =.:.F.W.W./.].%X&X-X;X&X#X$X+XR.s.f.{ ^ ~ ~ +.] +.h Q W } X.| g ( ! ( ` ~ <.` a.l.d.",
"1 % 1 % 1 2 % 2 2 % % 1 1 2 = 3 , > , = , v F -.F.Q.'.].@X%X=X&X@X].].'.XXj.2.s.E ^ R W R +.B t h R W | X.m _ ~ ~ #.) ` ` a.l.k.",
"$ 1 1 % % % 1 % % 2 % % 1 = = = > 2 2 = : < p F >.W.!.'.'.].].@XXX!.Q.L.j.*.2.` T R R W W ] m t h B m W  .m Q ( R p.` a.9.a.l.a.",
"% % % : % : % % : % % : % % & % % 2 % 1 : & o , D ;.H.E.Q.W.Y.L.L.r.e.-.} ' &.T T t x M ( B a q k B t B  .w Q +.! &.! #.<.f.l.9.",
"% % O # % % % % % % % % % % % % % 2 2 = 1 $ # # : 2 s J =.-.J H D v a a i V +.t t t x M E e 0 l i g t / @.w R +.E @.^ <.` f.l.9.",
"% O % O O % % % % % % % % % % % % % % = % % 1 1 # # @ # = = 5 , 1 = = & ; G C t y r e / e q 0 i h n t E o.w M | R p.! a.9.a.l.9.",
"% % % % % % % % % % % % % % # % % = % % % % % $ 1 1 1 # $ # $ % # O % + 5 F e r r t m n w * 9 l j j y / $.w R @.( s.E f.p.a.R.9.",
"# $ $ + # $ $ $ $ O % $ % $ # % % % % # % % $ $ $ @ $ % : @ $ $ O O O X c c q < r t M e * * 9 a g h y | o.r M #.| #._ f.a.f.l.9.",
"O # $ O $ # O # # # # $ # # # # o % # # # # # # % # $ $ $ O O O O O o : 6 p < < r x r 9 & - - j w g t  .+.w W #.+.#._ z.a.f.z.9.",
"O O # $ # O O # O $ $ # O # # # # % % # # # O O $ # O $ O O O O X O O + 6 , * * p t r < ; ; 9 j i t t | %.t W &.+.#._ z.a.a.f.9.",
"# # # X # # # $ # # O X X # X X # $ # # # # o X @ @ @ # O $ # # X : + + 6 , & 9 g q , = ; ; i q p d e ' o.w Q &.*.` ` z.p.a.k.@.",
"@ X X X X X X X # # X O X @ O O . X X X o X X X X X X X X o X X X O O + , ,   q i - = + ; ; a q p j n ] $.y / &.#.&.` z.` f.z.9.",
"O X X X o X X X @ o X O O X O @ X X X X X X X X @ o X X X X X X @ o o & , < * i 9 ; + % ; 9 j * q a B ' %.t ] #.#.&.<.x.` f.l.` ",
"X X X X X X X X X X X X X X X X o o . o X X X X X X X X X X X X @ X o ; , & , , - o : $ o l a * u n t W $.n ] %.#.#.p.f.` f.k.@.",
"X X X X X X X X X X X X X X X X . o o o X X X X X X X X X X X X X X o o > & * < & # O $ o l l   q D g W %.h ] &.&.+.p.x.` l.a._ ",
"X X X X X X X X X o o . X X X X X . o . X X . X X X X X X X X X O O + + > o & < o O @ $ # u r * 9 j j R &.h ' p.#.^ p.z._ z.9.#.",
"X X X X X X X X X . o . X X . X X X . o X X X X X X X X X X X X O O + > = o + + o @ @ O & u 0 * * n g R &.m ! &.&.R p.z.` f.9.( ",
"X X X X X X X o X X X X X X o X X X X X X X X X X X X X X . X X X X + & + + : + o O # o & , q * * n t E &.R ! *.#.~ &.z.` a.@.) ",
"X X X X X X X o . X X X X X X X X X X X X X X X X X X X X X X . X X + < + + + + o @ X # & 9 q < * d n R #.R ^ *.#.R p.a.#.a.` x "
};
